<svg width="77" height="77" viewBox="0 0 77 77" fill="none" xmlns="http://www.w3.org/2000/svg">
<circle cx="38.5" cy="38.5" r="37.5" stroke="#9A9A9A" stroke-width="2"/>
<path d="M47.75 21.5H30.25C25.4175 21.5 21.5 25.4175 21.5 30.25V47.75C21.5 52.5825 25.4175 56.5 30.25 56.5H47.75C52.5825 56.5 56.5 52.5825 56.5 47.75V30.25C56.5 25.4175 52.5825 21.5 47.75 21.5Z" stroke="black" stroke-width="2" stroke-linecap="round" stroke-linejoin="round"/>
<path d="M46 37.8975C46.216 39.354 45.9672 40.8414 45.2891 42.1483C44.611 43.4552 43.538 44.515 42.2229 45.177C40.9077 45.8389 39.4173 46.0693 37.9636 45.8354C36.51 45.6015 35.1671 44.9152 34.126 43.8741C33.0849 42.833 32.3985 41.4901 32.1646 40.0364C31.9307 38.5828 32.1611 37.0924 32.8231 35.7772C33.485 34.462 34.5448 33.3891 35.8517 32.711C37.1586 32.0328 38.6461 31.7841 40.1025 32C41.5881 32.2203 42.9635 32.9126 44.0255 33.9746C45.0874 35.0366 45.7797 36.4119 46 37.8975Z" stroke="black" stroke-width="2" stroke-linecap="round" stroke-linejoin="round"/>
<path d="M48.625 29.375H48.6417" stroke="black" stroke-width="2" stroke-linecap="round" stroke-linejoin="round"/>
</svg>
