<svg width="77" height="77" viewBox="0 0 77 77" fill="none" xmlns="http://www.w3.org/2000/svg">
<circle cx="38.5" cy="38.5" r="37.5" stroke="#9A9A9A" stroke-width="2"/>
<path d="M55.5 25.4999C54.0636 26.5132 52.4732 27.2881 50.79 27.7949C49.8866 26.7562 48.686 26.02 47.3506 25.6858C46.0151 25.3517 44.6092 25.4357 43.3231 25.9266C42.037 26.4175 40.9327 27.2915 40.1595 28.4305C39.3863 29.5695 38.9815 30.9185 39 32.2949V33.7949C36.364 33.8633 33.7519 33.2787 31.3965 32.0931C29.0411 30.9076 27.0155 29.1579 25.5 26.9999C25.5 26.9999 19.5 40.4999 33 46.4999C29.9108 48.5969 26.2307 49.6483 22.5 49.4999C36 56.9999 52.5 49.4999 52.5 32.2499C52.4986 31.8321 52.4584 31.4153 52.38 31.0049C53.9109 29.4952 54.9912 27.589 55.5 25.4999Z" stroke="black" stroke-width="2" stroke-linecap="round" stroke-linejoin="round"/>
</svg>
