<svg width="275" height="92" viewBox="0 0 275 92" fill="none" xmlns="http://www.w3.org/2000/svg">
<rect x="46" y="2.82843" width="61.0538" height="61.0538" transform="rotate(45 46 2.82843)" stroke="url(#paint0_linear_1_168)" stroke-width="4"/>
<path d="M34.4447 53.1725C34.4447 55.7165 34.4447 57.3965 34.3967 59.5085H40.2047C40.1567 57.4445 40.1567 55.8605 40.1567 53.3165V45.0605C40.1567 37.6685 42.0287 36.2285 47.0207 36.2285C52.0127 36.2285 53.5967 37.6685 53.5967 44.0525V53.2685C53.5967 56.0525 53.5967 57.3485 53.5487 59.5085H59.3087C59.2607 57.1565 59.2607 55.3805 59.2607 53.2685V48.1805C59.2607 44.1485 59.3087 42.1805 59.3087 40.7405C59.3087 33.6365 56.3807 30.9965 49.6607 30.9965C44.8127 30.9965 41.5967 32.3405 39.8687 36.1325L39.7727 31.5725H34.3967C34.4447 33.5405 34.4447 35.2205 34.4447 37.5725V53.1725Z" fill="white"/>
<path d="M136.776 61.0848C141.672 61.0848 144.744 59.2608 146.424 55.7088L146.52 60.5088H151.848C151.8 58.6368 151.8 56.7168 151.8 54.0768V31.0848C151.8 28.3968 151.8 26.2848 151.848 24.6048H145.992C145.992 26.6208 146.04 31.7088 146.088 36.6048C144.36 33.5808 141.432 31.9968 137.016 31.9968C128.76 31.9968 125.256 35.0688 125.256 45.8208V47.2608C125.256 58.0128 128.76 61.0848 136.776 61.0848ZM138.6 55.8528C132.888 55.8528 131.016 54.0768 131.016 46.7328V46.3488C131.016 39.0048 132.888 37.2288 138.84 37.2288C144.216 37.2288 146.136 38.9088 146.136 46.3008V46.7808C146.136 54.1248 144.216 55.8528 138.6 55.8528ZM171.271 61.0848C180.967 61.0848 184.615 57.9168 184.615 47.2608V45.8208C184.615 35.1648 180.967 31.9968 171.271 31.9968C161.623 31.9968 157.975 35.1648 157.975 45.8208V47.2608C157.975 57.9168 161.623 61.0848 171.271 61.0848ZM171.271 55.9488C165.559 55.9488 163.735 54.1728 163.735 46.7328V46.3488C163.735 38.8608 165.559 37.1328 171.271 37.1328C177.031 37.1328 178.855 38.8608 178.855 46.3488V46.7328C178.855 54.1728 177.031 55.9488 171.271 55.9488ZM190.827 54.1728C190.827 56.7168 190.827 58.3968 190.779 60.5088H196.587C196.539 58.4448 196.539 56.8608 196.539 54.3168V46.0608C196.539 38.6688 198.411 37.2288 203.403 37.2288C208.395 37.2288 209.979 38.6688 209.979 45.0528V54.2688C209.979 57.0528 209.979 58.3488 209.931 60.5088H215.691C215.643 58.1568 215.643 56.3808 215.643 54.2688V49.1808C215.643 45.1488 215.691 43.1808 215.691 41.7408C215.691 34.6368 212.763 31.9968 206.043 31.9968C201.195 31.9968 197.979 33.3408 196.251 37.1328L196.155 32.5728H190.779C190.827 34.5408 190.827 36.2208 190.827 38.5728V54.1728ZM237.393 60.9408C239.697 53.9328 244.785 39.1008 247.137 32.5728H240.993L237.585 43.4208C236.673 46.3488 235.809 49.3248 234.993 52.0128H233.169C232.113 49.3248 230.913 46.3488 229.761 43.5168L225.249 32.5728H218.817C221.601 39.1008 226.641 50.9088 229.089 57.0528H233.217L232.593 58.8768C231.633 61.8528 230.721 62.4288 228.513 62.4288C227.313 62.4288 225.921 62.3808 224.289 62.2368L224.145 67.0848C225.777 67.2768 227.265 67.3728 228.897 67.3728C234.129 67.3728 235.809 65.8848 237.393 60.9408ZM259.811 61.0848C264.707 61.0848 267.779 59.5488 269.363 57.0528L269.459 60.5088H274.643C274.595 56.7168 274.595 54.2688 274.595 51.3888C274.595 46.9728 274.643 45.3408 274.643 41.5488C274.643 35.0208 272.003 31.9968 262.163 31.9968C253.379 31.9968 250.403 34.7328 250.499 40.8768L255.971 41.0208C255.971 37.9008 256.883 36.8928 262.067 36.8928C267.443 36.8928 268.883 38.3328 268.883 42.8448V46.0128C267.203 44.1888 264.275 43.2288 259.859 43.2288C252.035 43.2288 249.299 45.8688 249.299 52.2528C249.299 58.5408 251.891 61.0848 259.811 61.0848ZM262.019 56.4768C256.835 56.4768 255.155 55.4208 255.155 52.1088C255.155 48.7008 256.307 47.4048 262.115 47.4048C267.539 47.4048 269.027 48.6528 269.027 50.9568V52.1568C269.027 55.2288 267.539 56.4768 262.019 56.4768Z" fill="white"/>
<path d="M77.392 62.0846C87.184 62.0846 98.5072 53.8766 98.5072 46.8206H92.744C92.744 50.3246 83.152 57.0926 77.44 57.0926C72.016 57.0926 70.048 55.4606 69.808 49.2686H90.016V46.8206C90.016 36.1646 86.512 32.9966 77.104 32.9966C67.744 32.9966 64 36.1646 64 46.8206V48.2606C64 58.9166 67.744 62.0846 77.392 62.0846ZM77.152 37.6046C82.24 37.6046 83.824 39.0926 84.016 44.9966H69.808C70.144 39.0926 72.112 37.6046 77.152 37.6046Z" fill="white"/>
<path d="M106.04 62.0846C115.736 62.0846 119.384 58.9166 119.384 48.2606V46.8206C119.384 36.1646 115.736 32.9966 106.04 32.9966C96.392 32.9966 92.744 36.1646 92.744 46.8206C92.744 57.4766 96.392 62.0846 106.04 62.0846ZM106.04 56.9486C100.328 56.9486 98.5072 54.2606 98.5072 46.8206L98.504 47.3486C98.504 39.8606 100.328 38.1326 106.04 38.1326C111.8 38.1326 113.624 39.8606 113.624 47.3486V47.7326C113.624 55.1726 111.8 56.9486 106.04 56.9486Z" fill="white"/>
<defs>
<linearGradient id="paint0_linear_1_168" x1="74.1526" y1="-19.2594" x2="74.1526" y2="71.0456" gradientUnits="userSpaceOnUse">
<stop offset="0.145826" stop-color="#BF0AFF"/>
<stop offset="0.52362" stop-color="#FF53B7"/>
<stop offset="0.890632" stop-color="#1D26FF"/>
</linearGradient>
</defs>
</svg>
